<?xml version="1.0" encoding="utf-8"?>
<!-- Generator: Adobe Illustrator 24.1.0, SVG Export Plug-In . SVG Version: 6.00 Build 0)  -->
<svg version="1.1" id="Layer_1" xmlns="http://www.w3.org/2000/svg" xmlns:xlink="http://www.w3.org/1999/xlink" x="0px" y="0px"
	 viewBox="0 0 100 20" style="enable-background:new 0 0 100 20;" xml:space="preserve">
<style type="text/css">
	.st0{fill:#1C2A53;}
</style>
<g>
	<path class="st0" d="M9.49,10.11c0-2.17,1.67-3.72,3.91-3.72c1.24,0,2.28,0.45,2.96,1.27l-1.07,0.99
		c-0.48-0.56-1.09-0.84-1.81-0.84c-1.35,0-2.3,0.95-2.3,2.3s0.96,2.3,2.3,2.3c0.72,0,1.33-0.29,1.81-0.85l1.07,0.99
		c-0.68,0.83-1.72,1.29-2.97,1.29C11.16,13.84,9.49,12.28,9.49,10.11z"/>
	<path class="st0" d="M16.76,9.23c0-1.67,1.29-2.85,3.04-2.85c1.76,0,3.03,1.18,3.03,2.85s-1.27,2.85-3.03,2.85
		C18.05,12.08,16.76,10.9,16.76,9.23z M21.22,9.23c0-0.96-0.61-1.53-1.41-1.53c-0.8,0-1.42,0.58-1.42,1.53
		c0,0.96,0.62,1.53,1.42,1.53C20.61,10.76,21.22,10.19,21.22,9.23z"/>
	<path class="st0" d="M36.27,12.18l-0.42,3.14l-1.59-0.22l0.39-2.89c0.12-0.89-0.22-1.35-0.86-1.43c-0.71-0.1-1.27,0.29-1.41,1.27
		L32,14.8l-1.59-0.22l0.39-2.89c0.12-0.89-0.2-1.35-0.86-1.43c-0.7-0.1-1.26,0.3-1.4,1.27l-0.37,2.75l-1.59-0.22l0.74-5.48
		l1.52,0.21l-0.09,0.63c0.47-0.41,1.12-0.58,1.82-0.48c0.76,0.1,1.38,0.49,1.68,1.14c0.51-0.5,1.27-0.74,2.1-0.63
		C35.66,9.62,36.5,10.5,36.27,12.18z"/>
	<path class="st0" d="M43.96,6.52c0.1-0.49,0.57-0.8,1.16-0.68c0.58,0.12,0.9,0.56,0.8,1.05c-0.11,0.52-0.58,0.83-1.16,0.71
		C44.18,7.48,43.86,7.01,43.96,6.52z M43.82,8.19l1.57,0.32l-1.11,5.42l-1.57-0.32L43.82,8.19z"/>
	<path class="st0" d="M54.12,9.95l0.68,3.09l-1.57,0.35l-0.63-2.85c-0.19-0.87-0.68-1.19-1.38-1.03c-0.75,0.17-1.19,0.75-0.97,1.74
		l0.59,2.67l-1.57,0.35l-1.19-5.4l1.5-0.33l0.14,0.63c0.32-0.55,0.9-0.95,1.63-1.11C52.62,7.77,53.75,8.3,54.12,9.95z"/>
	<path class="st0" d="M63.09,9.79l-1,4.5c-0.45,2.01-1.74,2.69-3.68,2.26c-1.02-0.23-1.96-0.7-2.48-1.33l0.87-0.99
		c0.38,0.47,1.08,0.88,1.77,1.04c1.1,0.25,1.7-0.15,1.91-1.12l0.05-0.23c-0.51,0.36-1.15,0.45-1.86,0.29
		c-1.5-0.33-2.47-1.64-2.12-3.21s1.79-2.34,3.28-2.01c0.75,0.17,1.32,0.56,1.61,1.17l0.15-0.69L63.09,9.79z M60.98,11.98
		c0.18-0.79-0.3-1.46-1.12-1.64c-0.82-0.18-1.54,0.21-1.72,1.01c-0.18,0.79,0.31,1.46,1.13,1.64S60.8,12.77,60.98,11.98z"/>
	<path class="st0" d="M63.73,12.56l0.99-0.96c0.4,0.63,1.13,1.25,1.93,1.57c0.92,0.36,1.41,0.2,1.57-0.21
		c0.49-1.25-3.74-1.93-2.76-4.42c0.45-1.14,1.74-1.72,3.65-0.97c0.84,0.33,1.62,0.87,2.09,1.51l-0.94,0.99
		c-0.48-0.6-1.05-1.02-1.65-1.26c-0.92-0.36-1.41-0.16-1.57,0.26c-0.49,1.23,3.74,1.92,2.77,4.38c-0.44,1.12-1.75,1.71-3.66,0.95
		C65.09,13.99,64.14,13.25,63.73,12.56z"/>
	<path class="st0" d="M72.04,9.23c0-1.67,1.29-2.85,3.04-2.85c1.76,0,3.03,1.18,3.03,2.85s-1.28,2.85-3.03,2.85
		C73.33,12.08,72.04,10.9,72.04,9.23z M76.5,9.23c0-0.96-0.61-1.53-1.41-1.53s-1.42,0.58-1.42,1.53c0,0.96,0.62,1.53,1.42,1.53
		S76.5,10.19,76.5,9.23z"/>
	<path class="st0" d="M78.78,10.95c0-1.67,1.29-2.85,3.04-2.85c1.76,0,3.03,1.18,3.03,2.85s-1.28,2.85-3.03,2.85
		C80.07,13.8,78.78,12.61,78.78,10.95z M83.24,10.95c0-0.96-0.61-1.53-1.41-1.53c-0.8,0-1.42,0.58-1.42,1.53
		c0,0.96,0.62,1.53,1.42,1.53C82.63,12.48,83.24,11.9,83.24,10.95z"/>
	<path class="st0" d="M91.29,9.59l1.1,2.97l-1.5,0.56l-1.01-2.74c-0.31-0.84-0.84-1.08-1.5-0.84c-0.72,0.27-1.08,0.9-0.73,1.86
		l0.95,2.57l-1.5,0.56l-1.92-5.19L86.6,8.8l0.22,0.61c0.24-0.59,0.76-1.06,1.46-1.32C89.52,7.63,90.71,8,91.29,9.59z"/>
</g>
<g>
	<path class="st0" d="M2.95,7.14c6.98,1.09,13.99,1.48,21,2.27c2.14,0.24,4.36,0.4,6.46,0.87c1.05,0.23,2.05,1.05,3.07,1.45
		c2.66,1.04,5.52,1.58,8.33,2.03c3.02,0.49,6.05,0.83,9.09,1.12c2.49,0.24,5.2,0.79,7.68,0.38c3.65-0.59,6.82-2.71,10.24-3.97
		c3.43-1.26,7.03-0.98,10.62-0.85c3.12,0.11,6.37,0.3,9.41-0.61c3.14-0.94,5.54-3.07,7.47-5.65c0.29-0.39-0.36-0.76-0.65-0.38
		c-1.87,2.5-4.23,4.54-7.28,5.38c-2.74,0.76-5.64,0.62-8.46,0.52c-3.18-0.11-6.6-0.49-9.71,0.35c-3.51,0.95-6.59,3.02-10.07,4.07
		c-2.71,0.81-5.37,0.37-8.13,0.11c-2.97-0.28-5.94-0.59-8.89-1.03c-2.82-0.42-5.66-0.92-8.37-1.82c-1.11-0.37-2.21-0.81-3.19-1.45
		C30.3,9.12,28.22,9.2,26.7,9C18.86,7.97,10.97,7.64,3.15,6.42C2.68,6.35,2.47,7.07,2.95,7.14L2.95,7.14z"/>
</g>
<g>
	<path class="st0" d="M35.39,5.29c3.81,0.22,7.75,0.46,11.33,1.92c3.45,1.41,5.74,4.54,9.17,5.91c3.59,1.44,7.54,1.05,11.28,0.57
		c3.82-0.49,8.47-1.49,11.83,0.95c0.39,0.28,0.77-0.37,0.38-0.65c-3.1-2.26-7.23-1.69-10.79-1.24c-4.17,0.53-8.64,1.28-12.65-0.43
		c-1.9-0.81-3.37-2.22-4.97-3.48c-1.35-1.06-2.83-1.91-4.44-2.52c-3.54-1.34-7.4-1.58-11.15-1.8C34.91,4.51,34.91,5.26,35.39,5.29
		L35.39,5.29z"/>
</g>
</svg>
